<svg xmlns="http://www.w3.org/2000/svg" viewBox="0 0 32 32">
  <!-- Background -->
  <rect width="32" height="32" rx="6" fill="#1A1A1A"/>

  <!-- G (White) - Simplified for small size -->
  <path fill="#FFFFFF" d="M5.5 16c0-4.4 3.6-8 8-8 2.2 0 4.2.9 5.6 2.3l-2 2c-1-.9-2.2-1.5-3.6-1.5-3 0-5.4 2.4-5.4 5.4s2.4 5.4 5.4 5.4c2 0 3.8-1.1 4.7-2.8h-4.7v-2.8h8v1.4c0 4.4-3.6 8-8 8s-8-3.6-8-8z"/>

  <!-- P (Gold) - Simplified for small size -->
  <path fill="#C4A77D" d="M17.5 7.5h5.4c3.1 0 5.7 2.5 5.7 5.7s-2.5 5.7-5.7 5.7h-2.6v4.6h-2.8V7.5zm2.8 8.5h2.6c1.6 0 2.8-1.3 2.8-2.8s-1.3-2.8-2.8-2.8h-2.6V16z"/>
</svg>
