<svg xmlns="http://www.w3.org/2000/svg" viewBox="0 0 512 512">
  <!-- Background with rounded corners -->
  <rect width="512" height="512" rx="96" fill="#1A1A1A"/>

  <!-- G Letter (White) - Sora-inspired geometric design -->
  <path fill="#FFFFFF" d="M82 256c0-77.3 62.7-140 140-140 38.6 0 73.6 15.6 99 40.9l-35.4 35.4C267.4 174.1 243.2 162 222 162c-51.9 0-94 42.1-94 94s42.1 94 94 94c35.5 0 66.4-19.7 82.4-48.7H222v-50h140v25c0 77.3-62.7 140-140 140S82 333.3 82 256z"/>

  <!-- P Letter (Gold) - Sora-inspired geometric design -->
  <path fill="#C4A77D" d="M290 116h95c55.2 0 100 44.8 100 100s-44.8 100-100 100h-45v80h-50V116zm50 150h45c27.6 0 50-22.4 50-50s-22.4-50-50-50h-45v100z"/>
</svg>
